HIERARCHY
ROOT Hips
{
	OFFSET 0.000000 87.230942 0.000000
	CHANNELS 6 Xposition Yposition Zposition Xrotation Yrotation Zrotation
	JOINT Pelvis
	{
		OFFSET 0.000000 0.000000 0.000000
		CHANNELS 3 Xrotation Yrotation Zrotation
		JOINT LeftUpLeg
		{
			OFFSET 12.017000 -9.376404 -2.439400
			CHANNELS 3 Xrotation Yrotation Zrotation
			JOINT LeftLeg
			{
				OFFSET -0.007312 -32.846973 2.110600
				CHANNELS 3 Xrotation Yrotation Zrotation
				JOINT LeftFoot
				{
					OFFSET 0.007312 -32.065170 -0.570400
					CHANNELS 3 Xrotation Yrotation Zrotation
					JOINT LeftToeBase
					{
						OFFSET 0.728300 -11.045900 13.180700
						CHANNELS 3 Xrotation Yrotation Zrotation
						End Site
						{
							OFFSET 0.000000 17.212589 0.000000
						}
					}
				}
				JOINT LeftPantLeg
				{
					OFFSET 0.002788 -16.709013 -3.143600
					CHANNELS 3 Xrotation Yrotation Zrotation
					End Site
					{
						OFFSET -0.605125 24.528742 0.000000
					}
				}
			}
			JOINT Left_Butt
			{
				OFFSET -6.630234 1.326584 -3.183700
				CHANNELS 3 Xrotation Yrotation Zrotation
				End Site
				{
					OFFSET -0.498041 20.188049 0.000000
				}
			}
		}
		JOINT RightUpLeg
		{
			OFFSET -11.717000 -9.376404 -2.439400
			CHANNELS 3 Xrotation Yrotation Zrotation
			JOINT RightLeg
			{
				OFFSET -0.003241 -32.846912 2.110600
				CHANNELS 3 Xrotation Yrotation Zrotation
				JOINT RightFoot
				{
					OFFSET 0.003241 -32.065136 -0.570500
					CHANNELS 3 Xrotation Yrotation Zrotation
					JOINT RightToeBase
					{
						OFFSET -0.728300 -11.045901 13.180700
						CHANNELS 3 Xrotation Yrotation Zrotation
						End Site
						{
							OFFSET 0.000000 17.212593 0.000000
						}
					}
				}
				JOINT RightPantLeg
				{
					OFFSET 0.008142 -16.708982 -3.143700
					CHANNELS 3 Xrotation Yrotation Zrotation
					End Site
					{
						OFFSET 0.605088 24.528715 0.000000
					}
				}
			}
			JOINT Right_Butt
			{
				OFFSET 6.630732 1.326584 -3.183700
				CHANNELS 3 Xrotation Yrotation Zrotation
				End Site
				{
					OFFSET 0.498015 20.188240 0.000000
				}
			}
		}
	}
	JOINT Spine
	{
		OFFSET -0.062400 7.848404 3.918300
		CHANNELS 3 Xrotation Yrotation Zrotation
		JOINT Spine1
		{
			OFFSET -0.072800 11.422302 0.713400
			CHANNELS 3 Xrotation Yrotation Zrotation
			JOINT Spine2
			{
				OFFSET -0.083200 13.054001 -1.931600
				CHANNELS 3 Xrotation Yrotation Zrotation
				JOINT Neck
				{
					OFFSET -0.092200 14.121796 -5.138800
					CHANNELS 3 Xrotation Yrotation Zrotation
					JOINT Head
					{
						OFFSET 0.000200 10.447403 -0.842000
						CHANNELS 3 Xrotation Yrotation Zrotation
						JOINT Visor
						{
							OFFSET 0.457100 25.671204 16.550400
							CHANNELS 3 Xrotation Yrotation Zrotation
							End Site
							{
								OFFSET 0.000000 26.061493 0.000000
							}
						}
						JOINT HairMidA
						{
							OFFSET 0.459400 31.585403 8.437400
							CHANNELS 3 Xrotation Yrotation Zrotation
							End Site
							{
								OFFSET 0.000000 26.061493 0.000000
							}
						}
						JOINT HairMidB
						{
							OFFSET 0.464000 33.309204 -8.389700
							CHANNELS 3 Xrotation Yrotation Zrotation
							End Site
							{
								OFFSET 0.000000 26.061493 0.000000
							}
						}
						JOINT HairMidC
						{
							OFFSET 0.466600 27.991196 -17.375099
							CHANNELS 3 Xrotation Yrotation Zrotation
							End Site
							{
								OFFSET 0.000000 26.061493 0.000000
							}
						}
						JOINT HairMidD
						{
							OFFSET 0.467700 17.888092 -21.169500
							CHANNELS 3 Xrotation Yrotation Zrotation
							End Site
							{
								OFFSET 0.000000 26.061493 0.000000
							}
						}
						JOINT HairMidE
						{
							OFFSET 5.325700 3.514603 -14.369699
							CHANNELS 3 Xrotation Yrotation Zrotation
							End Site
							{
								OFFSET 0.000000 26.061493 0.000000
							}
						}
						JOINT HairMidF
						{
							OFFSET -4.394100 3.514603 -14.372400
							CHANNELS 3 Xrotation Yrotation Zrotation
							End Site
							{
								OFFSET 0.000000 26.061493 0.000000
							}
						}
						JOINT HairLeftA
						{
							OFFSET 15.319900 25.746506 2.623300
							CHANNELS 3 Xrotation Yrotation Zrotation
							End Site
							{
								OFFSET 0.000000 26.061493 0.000000
							}
						}
						JOINT HairLeftB
						{
							OFFSET 12.619500 29.289398 -8.731499
							CHANNELS 3 Xrotation Yrotation Zrotation
							End Site
							{
								OFFSET 0.000000 26.061493 0.000000
							}
						}
						JOINT HairLeftC
						{
							OFFSET 15.714800 15.959900 2.909800
							CHANNELS 3 Xrotation Yrotation Zrotation
							End Site
							{
								OFFSET 0.000000 26.061493 0.000000
							}
						}
						JOINT HairLeftD
						{
							OFFSET 16.101700 18.437408 -7.553200
							CHANNELS 3 Xrotation Yrotation Zrotation
							End Site
							{
								OFFSET 0.000000 26.061493 0.000000
							}
						}
						JOINT HairLeftE
						{
							OFFSET 9.731900 17.915009 -18.316799
							CHANNELS 3 Xrotation Yrotation Zrotation
							End Site
							{
								OFFSET 0.000000 26.061493 0.000000
							}
						}
						JOINT HairLeftF
						{
							OFFSET 11.204300 4.953598 -9.668100
							CHANNELS 3 Xrotation Yrotation Zrotation
							End Site
							{
								OFFSET 0.000000 26.061493 0.000000
							}
						}
						JOINT HairRightA
						{
							OFFSET -14.397900 25.746307 2.615100
							CHANNELS 3 Xrotation Yrotation Zrotation
							End Site
							{
								OFFSET 0.000000 26.061493 0.000000
							}
						}
						JOINT HairRightB
						{
							OFFSET -11.691200 29.289200 -8.738199
							CHANNELS 3 Xrotation Yrotation Zrotation
							End Site
							{
								OFFSET 0.000000 26.061493 0.000000
							}
						}
						JOINT HairRightC
						{
							OFFSET -14.792900 15.959702 2.901400
							CHANNELS 3 Xrotation Yrotation Zrotation
							End Site
							{
								OFFSET 0.000000 26.061493 0.000000
							}
						}
						JOINT HairRightD
						{
							OFFSET -15.174000 18.437195 -7.561900
							CHANNELS 3 Xrotation Yrotation Zrotation
							End Site
							{
								OFFSET 0.000000 26.061493 0.000000
							}
						}
						JOINT HairRightE
						{
							OFFSET -8.798200 17.914902 -18.322001
							CHANNELS 3 Xrotation Yrotation Zrotation
							End Site
							{
								OFFSET 0.000000 26.061493 0.000000
							}
						}
						JOINT HairRightF
						{
							OFFSET -10.275200 4.953506 -9.674099
							CHANNELS 3 Xrotation Yrotation Zrotation
							End Site
							{
								OFFSET 0.000000 26.061493 0.000000
							}
						}
					}
				}
				JOINT LeftShoulder
				{
					OFFSET 5.133500 7.341202 -1.867600
					CHANNELS 3 Xrotation Yrotation Zrotation
					JOINT LeftArm
					{
						OFFSET 8.072663 0.936867 -2.176600
						CHANNELS 3 Xrotation Yrotation Zrotation
						JOINT LeftForeArm
						{
							OFFSET 31.271999 0.000000 0.000000
							CHANNELS 3 Xrotation Yrotation Zrotation
							JOINT LeftHand
							{
								OFFSET 31.771030 0.000000 0.000000
								CHANNELS 3 Xrotation Yrotation Zrotation
								JOINT LeftHandThumb1
								{
									OFFSET 2.886520 -2.557846 4.416640
									CHANNELS 3 Xrotation Yrotation Zrotation
									JOINT LeftHandThumb2
									{
										OFFSET 2.371025 -1.368912 1.368911
										CHANNELS 3 Xrotation Yrotation Zrotation
										JOINT LeftHandThumb3
										{
											OFFSET 2.243378 -1.295212 1.295213
											CHANNELS 3 Xrotation Yrotation Zrotation
											End Site
											{
												OFFSET -0.332611 2.876945 0.020015
											}
										}
									}
								}
								JOINT LeftHandIndex1
								{
									OFFSET 8.568985 -0.641945 3.119977
									CHANNELS 3 Xrotation Yrotation Zrotation
									JOINT LeftHandIndex2
									{
										OFFSET 3.348503 0.000000 0.000000
										CHANNELS 3 Xrotation Yrotation Zrotation
										JOINT LeftHandIndex3
										{
											OFFSET 3.314552 0.000000 0.000000
											CHANNELS 3 Xrotation Yrotation Zrotation
											End Site
											{
												OFFSET -1.032898 3.075485 0.678796
											}
										}
									}
								}
								JOINT LeftHandMiddle1
								{
									OFFSET 8.124603 0.000000 0.000000
									CHANNELS 3 Xrotation Yrotation Zrotation
									JOINT LeftHandMiddle2
									{
										OFFSET 4.166275 0.000000 0.000000
										CHANNELS 3 Xrotation Yrotation Zrotation
										JOINT LeftHandMiddle3
										{
											OFFSET 3.018135 0.000000 0.000000
											CHANNELS 3 Xrotation Yrotation Zrotation
											End Site
											{
												OFFSET -1.032700 2.767982 0.617226
											}
										}
									}
								}
								JOINT LeftHandRing1
								{
									OFFSET 8.571686 -0.031357 -2.884048
									CHANNELS 3 Xrotation Yrotation Zrotation
									JOINT LeftHandRing2
									{
										OFFSET 3.671181 0.000000 0.000000
										CHANNELS 3 Xrotation Yrotation Zrotation
										JOINT LeftHandRing3
										{
											OFFSET 2.728851 0.000000 0.000000
											CHANNELS 3 Xrotation Yrotation Zrotation
											End Site
											{
												OFFSET -0.815796 2.539223 0.577389
											}
										}
									}
								}
								JOINT LeftHandPinky1
								{
									OFFSET 7.854515 -0.675232 -5.213020
									CHANNELS 3 Xrotation Yrotation Zrotation
									JOINT LeftHandPinky2
									{
										OFFSET 3.068596 0.000000 0.000000
										CHANNELS 3 Xrotation Yrotation Zrotation
										JOINT LeftHandPinky3
										{
											OFFSET 2.396042 0.000000 0.000000
											CHANNELS 3 Xrotation Yrotation Zrotation
											End Site
											{
												OFFSET -0.524597 2.267998 0.567429
											}
										}
									}
								}
							}
							JOINT LeftSleeve
							{
								OFFSET 19.684509 -0.200119 0.476146
								CHANNELS 3 Xrotation Yrotation Zrotation
								End Site
								{
									OFFSET -0.031017 25.731133 -0.002868
								}
							}
						}
					}
				}
				JOINT RightShoulder
				{
					OFFSET -4.395900 7.341202 -1.870200
					CHANNELS 3 Xrotation Yrotation Zrotation
					JOINT RightArm
					{
						OFFSET -8.071453 0.936867 -2.181100
						CHANNELS 3 Xrotation Yrotation Zrotation
						JOINT RightForeArm
						{
							OFFSET -31.272011 0.000000 0.000000
							CHANNELS 3 Xrotation Yrotation Zrotation
							JOINT RightHand
							{
								OFFSET -31.771019 0.000000 0.000000
								CHANNELS 3 Xrotation Yrotation Zrotation
								JOINT RightHandThumb1
								{
									OFFSET -2.886520 -2.557808 4.416626
									CHANNELS 3 Xrotation Yrotation Zrotation
									JOINT RightHandThumb2
									{
										OFFSET -2.371056 -1.368927 1.368928
										CHANNELS 3 Xrotation Yrotation Zrotation
										JOINT RightHandThumb3
										{
											OFFSET -2.243362 -1.295204 1.295206
											CHANNELS 3 Xrotation Yrotation Zrotation
											End Site
											{
												OFFSET 0.332642 2.876938 0.020047
											}
										}
									}
								}
								JOINT RightHandIndex1
								{
									OFFSET -8.568993 -0.641953 3.120017
									CHANNELS 3 Xrotation Yrotation Zrotation
									JOINT RightHandIndex2
									{
										OFFSET -3.348518 0.000000 0.000000
										CHANNELS 3 Xrotation Yrotation Zrotation
										JOINT RightHandIndex3
										{
											OFFSET -3.314552 0.000000 0.000000
											CHANNELS 3 Xrotation Yrotation Zrotation
											End Site
											{
												OFFSET 1.032898 3.075478 0.678804
											}
										}
									}
								}
								JOINT RightHandMiddle1
								{
									OFFSET -8.124588 0.000000 0.000000
									CHANNELS 3 Xrotation Yrotation Zrotation
									JOINT RightHandMiddle2
									{
										OFFSET -4.166275 0.000000 0.000000
										CHANNELS 3 Xrotation Yrotation Zrotation
										JOINT RightHandMiddle3
										{
											OFFSET -3.018097 0.000000 0.000000
											CHANNELS 3 Xrotation Yrotation Zrotation
											End Site
											{
												OFFSET 1.032700 2.767937 0.617197
											}
										}
									}
								}
								JOINT RightHandRing1
								{
									OFFSET -8.571747 -0.031349 -2.884061
									CHANNELS 3 Xrotation Yrotation Zrotation
									JOINT RightHandRing2
									{
										OFFSET -3.671204 0.000000 0.000000
										CHANNELS 3 Xrotation Yrotation Zrotation
										JOINT RightHandRing3
										{
											OFFSET -2.728874 0.000000 0.000000
											CHANNELS 3 Xrotation Yrotation Zrotation
											End Site
											{
												OFFSET 0.815804 2.539261 0.577413
											}
										}
									}
								}
								JOINT RightHandPinky1
								{
									OFFSET -7.854561 -0.675247 -5.212970
									CHANNELS 3 Xrotation Yrotation Zrotation
									JOINT RightHandPinky2
									{
										OFFSET -3.068550 0.000000 0.000000
										CHANNELS 3 Xrotation Yrotation Zrotation
										JOINT RightHandPinky3
										{
											OFFSET -2.395981 0.000000 0.000000
											CHANNELS 3 Xrotation Yrotation Zrotation
											End Site
											{
												OFFSET 0.524605 2.267952 0.567413
											}
										}
									}
								}
							}
							JOINT RightSleeve
							{
								OFFSET -19.684753 -0.200165 0.476065
								CHANNELS 3 Xrotation Yrotation Zrotation
								End Site
								{
									OFFSET 0.031342 25.731255 -0.002917
								}
							}
						}
					}
				}
				JOINT Hood
				{
					OFFSET 0.369700 14.447800 -5.317800
					CHANNELS 3 Xrotation Yrotation Zrotation
					JOINT Hood1
					{
						OFFSET 0.001700 -5.553802 -5.895100
						CHANNELS 3 Xrotation Yrotation Zrotation
						JOINT Hood2
						{
							OFFSET -0.000200 -8.380501 0.763600
							CHANNELS 3 Xrotation Yrotation Zrotation
							End Site
							{
								OFFSET 0.000000 8.415215 0.000000
							}
						}
					}
				}
				JOINT Left_Breast
				{
					OFFSET 5.682500 3.120102 3.188800
					CHANNELS 3 Xrotation Yrotation Zrotation
					End Site
					{
						OFFSET 0.000000 10.528564 0.000000
					}
				}
				JOINT Right_Breast
				{
					OFFSET -4.947600 3.120102 3.185900
					CHANNELS 3 Xrotation Yrotation Zrotation
					End Site
					{
						OFFSET 0.000000 10.528564 0.000000
					}
				}
				JOINT Whistle
				{
					OFFSET 0.368200 11.471298 0.095400
					CHANNELS 3 Xrotation Yrotation Zrotation
					JOINT Whistle1
					{
						OFFSET -0.002000 -6.349899 7.479800
						CHANNELS 3 Xrotation Yrotation Zrotation
						JOINT Whistle2
						{
							OFFSET -0.001300 -8.217598 4.717600
							CHANNELS 3 Xrotation Yrotation Zrotation
							End Site
							{
								OFFSET 0.000000 9.475479 0.000000
							}
						}
					}
				}
			}
		}
		JOINT Belly
		{
			OFFSET 0.212400 1.593002 3.163700
			CHANNELS 3 Xrotation Yrotation Zrotation
			End Site
			{
				OFFSET 0.000000 7.496635 0.000000
			}
		}
	}
	JOINT FitGrandmaFacialAnim_Joint
	{
		OFFSET 1.150000 -86.211197 -1.220100
		CHANNELS 3 Xrotation Yrotation Zrotation
		End Site
		{
			OFFSET 0.000000 31.666618 0.000000
		}
	}
}
MOTION
Frames: 4
Frame Time: 0.016667
-2.655672 73.980042 71.402573 31.828169 13.785666 -7.391155 0.000001 -0.000001 0.000000 -4.246616 8.858272 1.736686 21.980319 20.331919 1.036082 -24.178549 1.645877 -24.212577 0.000000 -0.000000 -0.000000 -0.000003 0.000002 0.000002 -0.000001 0.000003 -0.000001 -70.873799 -10.784806 -0.021005 68.164277 -32.070668 -1.747193 -18.661422 -0.905366 2.283541 0.000000 -0.000002 0.000000 -0.000002 0.000001 0.000001 0.000005 -0.000000 0.000001 4.721597 0.004218 2.383755 9.441405 0.085016 4.172059 9.441396 0.085010 4.172062 -7.147105 0.629943 -0.577766 -4.884829 0.126167 2.445928 0.000001 -0.000000 0.000000 0.000001 -0.000000 0.000000 0.000001 -0.000000 0.000000 0.000001 -0.000000 0.000000 0.000001 -0.000000 0.000000 0.000001 -0.000000 0.000000 0.000001 -0.000000 0.000000 0.000001 -0.000000 0.000000 0.000001 -0.000000 0.000000 0.000001 -0.000000 0.000000 0.000001 -0.000000 0.000000 0.000001 -0.000000 0.000000 0.000001 -0.000000 0.000000 0.000001 -0.000000 0.000000 0.000001 -0.000000 0.000000 0.000001 -0.000000 0.000000 0.000001 -0.000000 0.000000 0.000001 -0.000000 0.000000 0.000001 -0.000000 0.000000 3.345530 -20.374548 5.851159 -45.404150 -21.632008 -43.071740 105.129596 -62.566220 117.849832 32.351714 22.518546 68.310511 -22.329927 -10.232668 -0.665735 -13.008748 33.638798 5.466813 -0.000002 0.000001 -0.000001 -3.249112 -3.487686 -45.487690 -11.741088 -5.662323 -117.786325 -0.000002 0.000000 0.000001 -1.607287 -1.437561 -44.852835 -8.864496 -8.229470 -108.221629 -0.000001 0.000000 -0.000001 1.621473 4.447405 -42.845234 -1.055287 -8.990308 -99.406327 0.000000 0.000000 -0.000001 2.581081 6.861469 -50.366378 0.502811 -8.788560 -83.370286 -0.000001 -0.000002 -0.000003 -0.000000 0.000000 -0.000000 1.512611 10.066769 -3.702968 -39.856865 5.966727 40.669774 110.736621 51.476738 -131.206062 41.008555 -31.696108 -49.398804 -31.480574 10.386593 -14.209258 -13.008687 -33.638832 -5.466809 0.000004 0.000001 -0.000001 -3.485983 1.851589 32.874418 -8.875834 5.007722 106.188166 -0.000000 0.000000 0.000003 -2.051664 0.230832 37.937111 -6.364971 7.372390 96.576894 -0.000001 -0.000000 0.000002 2.774052 -3.553482 41.587021 -1.339031 10.439971 83.973139 0.000001 -0.000001 -0.000003 4.714849 -4.516911 49.238776 -1.408710 11.737836 71.641977 0.000001 0.000000 0.000005 -0.000001 -0.000001 -0.000001 -0.000003 -0.000000 -0.000000 -0.000003 -0.000000 -0.000000 -0.000003 -0.000000 -0.000000 -0.000003 -0.000000 -0.000000 -0.000003 -0.000000 -0.000000 -0.000003 -0.000000 -0.000000 -0.000002 -0.000000 0.000000 -0.000002 -0.000000 0.000000 -0.000000 0.000000 0.000001 0.000001 -0.000001 0.000000 
-2.683575 73.855385 71.576195 32.036227 13.787985 -7.436678 0.000003 -0.000000 0.000001 -4.539974 8.853672 1.854188 22.412844 20.324331 1.035300 -24.200096 1.603228 -24.452385 0.000001 -0.000001 0.000001 -0.000001 -0.000001 -0.000000 0.000000 -0.000000 -0.000000 -71.202837 -10.900029 -0.049190 68.620718 -32.065402 -1.745153 -18.807821 -0.905756 2.244280 0.000000 0.000001 -0.000001 -0.000003 0.000000 -0.000001 -0.000001 -0.000001 0.000000 4.640617 0.004286 2.386290 9.279500 0.081825 4.174586 9.279513 0.081825 4.174587 -7.203875 0.623598 -0.573727 -4.979433 0.067746 2.427054 0.000001 0.000000 -0.000000 0.000001 0.000000 -0.000000 0.000001 0.000000 -0.000000 0.000001 0.000000 -0.000000 0.000001 0.000000 -0.000000 0.000001 0.000000 -0.000000 0.000001 0.000000 -0.000000 0.000001 0.000000 -0.000000 0.000001 0.000000 -0.000000 0.000001 0.000000 -0.000000 0.000001 0.000000 -0.000000 0.000001 0.000000 -0.000000 0.000001 0.000000 -0.000000 0.000001 0.000000 -0.000000 0.000001 0.000000 -0.000000 0.000001 0.000000 -0.000000 0.000001 0.000000 -0.000000 0.000001 0.000000 -0.000000 0.000001 0.000000 -0.000000 3.403900 -20.465916 6.046230 -45.550767 -21.701377 -42.949230 104.319337 -62.881098 117.063186 32.170734 22.448986 68.336254 -22.329939 -10.232686 -0.665750 -13.008761 33.638811 5.466846 0.000002 0.000001 -0.000003 -3.249118 -3.487685 -45.487697 -11.741080 -5.662310 -117.786312 -0.000002 -0.000002 0.000000 -1.607302 -1.437564 -44.852838 -8.864499 -8.229458 -108.221636 -0.000006 -0.000000 0.000002 1.621488 4.447406 -42.845240 -1.055299 -8.990326 -99.406307 0.000000 0.000001 0.000002 2.581067 6.861459 -50.366389 0.502838 -8.788579 -83.370273 -0.000004 -0.000002 0.000001 -0.000001 -0.000001 -0.000000 1.519932 10.005073 -3.875167 -40.127266 6.220000 40.746750 110.235285 51.780484 -130.620893 41.065805 -31.593979 -49.231952 -31.480578 10.386582 -14.209242 -13.008715 -33.638842 -5.466822 -0.000002 0.000001 0.000001 -3.485992 1.851593 32.874435 -8.875816 5.007723 106.188145 -0.000001 -0.000000 0.000003 -2.051665 0.230811 37.937125 -6.364953 7.372392 96.576908 0.000000 0.000002 0.000002 2.774050 -3.553481 41.587055 -1.339036 10.439965 83.973160 0.000003 -0.000003 -0.000001 4.714851 -4.516922 49.238810 -1.408718 11.737824 71.641991 -0.000001 0.000001 -0.000000 -0.000002 0.000002 0.000001 -0.000001 -0.000000 0.000000 -0.000001 -0.000000 0.000000 -0.000001 -0.000000 0.000000 -0.000001 -0.000000 0.000000 -0.000001 -0.000000 0.000000 -0.000001 -0.000000 0.000001 -0.000001 0.000001 0.000001 -0.000001 0.000001 0.000001 -0.000001 -0.000001 -0.000000 0.000003 -0.000000 0.000001 
-2.708284 73.731651 71.747635 32.250698 13.795403 -7.485422 0.000001 -0.000000 0.000000 -4.839818 8.847941 1.970218 22.839784 20.317547 1.034746 -24.212993 1.559766 -24.691921 0.000000 -0.000000 0.000000 0.000003 -0.000001 -0.000000 0.000001 0.000001 -0.000002 -71.528801 -11.018452 -0.087155 69.063478 -32.051745 -1.742468 -18.960076 -0.909444 2.214101 -0.000001 -0.000002 -0.000000 -0.000001 0.000001 -0.000000 -0.000001 -0.000000 0.000001 4.558770 0.004528 2.390761 9.115783 0.078890 4.180706 9.115789 0.078889 4.180705 -7.260781 0.622990 -0.571325 -5.077525 0.011021 2.406300 0.000000 -0.000001 -0.000000 0.000000 -0.000001 -0.000000 0.000000 -0.000001 -0.000000 0.000000 -0.000001 -0.000000 0.000000 -0.000001 -0.000000 0.000000 -0.000001 -0.000000 0.000000 -0.000001 -0.000000 0.000000 -0.000001 -0.000000 0.000000 -0.000001 -0.000000 0.000000 -0.000001 -0.000000 0.000000 -0.000001 -0.000000 0.000000 -0.000001 -0.000000 0.000000 -0.000001 -0.000000 0.000000 -0.000001 -0.000000 0.000000 -0.000001 -0.000000 0.000000 -0.000001 -0.000000 0.000000 -0.000001 -0.000000 0.000000 -0.000001 -0.000000 0.000000 -0.000001 -0.000000 3.462218 -20.556776 6.238191 -45.726132 -21.783029 -42.867278 103.432430 -63.200396 116.209112 32.017987 22.348577 68.350734 -22.329939 -10.232697 -0.665743 -13.008765 33.638822 5.466845 -0.000001 -0.000001 -0.000003 -3.249105 -3.487676 -45.487707 -11.741088 -5.662340 -117.786284 -0.000005 -0.000002 0.000004 -1.607299 -1.437547 -44.852824 -8.864495 -8.229472 -108.221622 -0.000001 0.000001 0.000003 1.621478 4.447415 -42.845247 -1.055281 -8.990328 -99.406307 0.000001 0.000002 -0.000001 2.581062 6.861470 -50.366385 0.502813 -8.788573 -83.370293 -0.000002 -0.000001 0.000001 -0.000003 0.000000 0.000000 1.527273 9.940857 -4.054028 -40.408400 6.474602 40.823631 109.704053 52.094976 -130.008170 41.123845 -31.479560 -49.069998 -31.480567 10.386569 -14.209251 -13.008703 -33.638825 -5.466808 -0.000003 0.000001 -0.000001 -3.485991 1.851584 32.874431 -8.875833 5.007721 106.188159 -0.000001 -0.000001 0.000003 -2.051661 0.230820 37.937104 -6.364974 7.372384 96.576915 -0.000001 0.000001 0.000000 2.774055 -3.553494 41.587048 -1.339029 10.439970 83.973146 0.000000 0.000000 0.000003 4.714832 -4.516910 49.238779 -1.408702 11.737811 71.641991 -0.000001 0.000001 -0.000004 -0.000001 0.000003 -0.000000 0.000001 0.000000 0.000000 0.000001 0.000000 0.000000 0.000001 0.000000 0.000000 0.000001 0.000000 0.000000 0.000001 0.000000 0.000000 0.000000 -0.000000 0.000000 0.000002 -0.000000 0.000000 0.000002 -0.000000 0.000000 0.000001 0.000001 -0.000000 0.000001 -0.000000 0.000000 
-2.730510 73.607803 71.918869 32.467472 13.802200 -7.534106 -0.000002 -0.000000 0.000000 -5.138685 8.841314 2.083124 23.260189 20.311442 1.034446 -24.218326 1.515634 -24.930460 0.000000 0.000001 -0.000001 -0.000004 -0.000002 0.000005 0.000002 0.000001 -0.000001 -71.851534 -11.137760 -0.133976 69.501703 -32.015252 -1.738135 -19.117064 -0.915459 2.190153 0.000001 -0.000001 -0.000000 0.000002 -0.000001 0.000001 -0.000005 -0.000000 0.000001 4.476417 0.004410 2.395123 8.951142 0.074997 4.186377 8.951175 0.075011 4.186375 -7.318566 0.628099 -0.570277 -5.178897 -0.043939 2.385304 -0.000000 0.000000 0.000000 -0.000000 0.000000 0.000000 -0.000000 0.000000 0.000000 -0.000000 0.000000 0.000000 -0.000000 0.000000 0.000000 -0.000000 0.000000 0.000000 -0.000000 0.000000 0.000000 -0.000000 0.000000 0.000000 -0.000000 0.000000 0.000000 -0.000000 0.000000 0.000000 -0.000000 0.000000 0.000000 -0.000000 0.000000 0.000000 -0.000000 0.000000 0.000000 -0.000000 0.000000 0.000000 -0.000000 0.000000 0.000000 -0.000000 0.000000 0.000000 -0.000000 0.000000 0.000000 -0.000000 0.000000 0.000000 -0.000000 0.000000 0.000000 3.520940 -20.647264 6.429785 -45.923084 -21.869200 -42.821673 102.479291 -63.518362 115.301270 31.897311 22.218551 68.346472 -22.329941 -10.232684 -0.665740 -13.008742 33.638808 5.466827 -0.000003 -0.000003 0.000000 -3.249108 -3.487693 -45.487697 -11.741087 -5.662323 -117.786298 0.000000 -0.000000 0.000002 -1.607287 -1.437550 -44.852848 -8.864501 -8.229482 -108.221636 -0.000001 -0.000001 -0.000002 1.621474 4.447398 -42.845237 -1.055284 -8.990307 -99.406320 0.000001 0.000001 0.000000 2.581067 6.861468 -50.366378 0.502815 -8.788569 -83.370273 0.000001 0.000000 0.000002 -0.000002 0.000001 0.000000 1.534762 9.876784 -4.238352 -40.697037 6.729565 40.910425 109.140733 52.419024 -129.364152 41.180546 -31.352023 -48.919693 -31.480557 10.386582 -14.209255 -13.008721 -33.638852 -5.466837 0.000001 0.000002 0.000001 -3.485987 1.851583 32.874438 -8.875836 5.007724 106.188159 -0.000002 -0.000001 -0.000001 -2.051667 0.230813 37.937118 -6.364975 7.372409 96.576880 -0.000001 0.000001 0.000000 2.774047 -3.553485 41.587055 -1.339015 10.439952 83.973153 -0.000001 -0.000001 -0.000003 4.714840 -4.516903 49.238803 -1.408721 11.737806 71.641977 -0.000001 -0.000000 -0.000003 0.000000 -0.000002 -0.000001 0.000002 -0.000001 0.000000 0.000002 -0.000001 0.000000 0.000002 -0.000001 0.000000 0.000002 -0.000001 0.000000 0.000002 -0.000001 0.000000 0.000002 -0.000001 -0.000000 0.000002 0.000000 0.000000 0.000002 0.000000 0.000000 -0.000002 -0.000000 0.000000 -0.000002 -0.000000 0.000000 
